# xmcd CD database file
#
# Track frame offsets:
#	150
#	20798
#	42775
#	68368
#	73635
#	89973
#	104625
#	121568
#	143220
#	168278
#	187248
#	209088
#
# Disc length: 3012 seconds
#
# Revision: 0
# Processed by: cddbd v1.5.2PL0 Copyright (c) Steve Scherf et al.
# Submitted via: CDex 1.70beta2
#
DISCID=b50bc20c
DTITLE=Nina Simone - My Baby Just Cares For Me
DYEAR=1987
DGENRE=Jazz
TTITLE0=My Baby Just Cares For Me
TTITLE1=Don't Smoke In Bed
TTITLE2=Mood Indigo
TTITLE3=He Needs Me
TTITLE4=Love Me Or Leave Me
TTITLE5=I Love You Porgy
TTITLE6=Good Bait
TTITLE7=Central Park Blues
TTITLE8=You'll Never Walk Alone
TTITLE9=Plain Gold Ring
TTITLE10=Little Girl Blue
TTITLE11=My Baby Just Cares For Me (Special Extended Version)
EXTD=YEAR: 1987
EXTT0=
EXTT1=
EXTT2=
EXTT3=
EXTT4=
EXTT5=
EXTT6=
EXTT7=
EXTT8=
EXTT9=
EXTT10=
EXTT11=
PLAYORDER=
